<svg xmlns="http://www.w3.org/2000/svg" viewBox="0 0 100 116" width="100" height="116">
	<style>
		.shp0 { fill: #a7abad } 
	</style>
	<path class="shp0" d="M77.69,49.01c0,0 -0.13,-2.06 -0.93,-5.13c-0.9,5.76 -2.9,10.13 -2.9,10.13c0,0 -0.2,-2.58 -0.88,-6.22c-2.05,7.77 -6.14,13.53 -6.14,13.53c0,0 0.54,-2.94 0.89,-7.19c-0.09,0.2 -0.18,0.37 -0.28,0.52c-1.09,1.64 -11.41,6.52 -14.23,6.61c-0.05,0 -0.09,0 -0.15,0c0.03,0.39 0.05,0.79 0.07,1.17c2.08,0.48 3.26,1.26 4.49,2.25c0.05,0.04 0.09,0.1 0.14,0.19c1.2,1.06 2.21,2.52 3.6,3.9c2.01,2 2.92,3.21 3.77,4c0.85,0.79 5.54,4.12 5.84,4.12c0.3,0 2.25,-0.79 2.68,-0.36c0.43,0.42 -0.49,2 -1.16,2.73c-0.67,0.73 -2.19,0.91 -2.55,1.39c-0.36,0.48 -0.79,1.58 -1.28,1.76c-0.49,0.18 -1.09,-1.03 -1.4,-1.21c-0.3,-0.18 -3.28,-2.32 -4.62,-3.09c-0.92,-0.53 -2.29,-1.18 -3.54,-1.74c0.08,0.75 0.16,1.49 0.23,2.15c0.1,1.01 0.6,2.78 1.06,4.63l0.06,0c0,0 0.97,1.61 1.67,2.67c0.7,1.07 1.49,2.68 1.49,2.68l2.58,0.64l-1.1,1.79l0.97,1.79l-3.45,0.48l-0.54,2.26l-1.7,-0.46c-0.39,2.35 -0.79,4.4 -0.85,4.86c-0.15,1.04 -0.62,5.37 -0.94,8.59c-0.32,3.22 -1.77,7.22 -3.11,7.38c-1.33,0.16 -2.75,-1.92 -3.17,-5.78c-0.43,-3.93 -0.76,-6.39 -1.05,-7.95c-0.16,-0.86 -0.34,-2.56 -0.53,-4.33l-0.76,1.41l-2.18,-1.57l-0.87,1.24l-1.01,-0.7c-0.24,1.54 -0.29,2.42 -0.43,3.29c-0.2,1.28 -0.05,4.94 -0.07,8.19c-0.02,3.33 0.21,5.67 -0.89,6.18c-1.39,0.65 -3.77,-0.82 -5.22,-4.29c-1.45,-3.47 -1.51,-6.07 -1.83,-7.58c-0.38,-1.81 -2.23,-5.9 -3.11,-9.81l-1.89,0.2l0.32,-1.47l-3.52,-1.58l1.64,-1.99l-0.64,-1.01l1.87,-0.55c0,0 0.82,-1.12 2.11,-2.61c0.72,-0.84 1.4,-1.65 1.87,-2.21c0.5,-0.8 0.99,-1.38 1.35,-1.83c0.62,-0.78 1.03,-2.23 1.55,-4.91c-1.46,0.4 -2.59,0.74 -3.48,1.43c-1.4,1.09 -3.22,1.76 -3.77,2.12c-0.55,0.36 -0.49,2.24 -1.03,2.48c-0.55,0.24 -1.22,-0.97 -1.52,-1.09c-0.3,-0.12 -2.43,-0.3 -3.35,-1.03c-0.91,-0.73 -2.43,-2.06 -2.01,-2.61c0.43,-0.55 3.16,-0.79 3.65,-0.97c0.49,-0.18 5.35,-3.39 6.33,-4.55c0.97,-1.15 2.68,-2.91 4.99,-4.97c1.66,-1.48 2.73,-2.71 4.05,-3.42c0.25,-0.16 0.52,-0.28 0.81,-0.37c1.06,-0.32 1.94,-0.63 2.84,-0.86c0.07,-0.46 0.24,-0.98 0.37,-1.56c0.07,-0.34 0.14,-0.64 0.19,-0.9c-3.04,-0.92 -6.49,-2.18 -8.94,-3.33c0.61,3.49 1.34,5.66 1.34,5.66c0,0 -2.39,-2.5 -4.7,-7.86c-0.67,-0.76 -1.43,-1.83 -2.22,-3.13c0.11,3.62 0.59,7.65 0.59,7.65c0,0 -2.83,-3.55 -5.28,-9.31c-0.16,2.09 -0.19,3.5 -0.19,3.5c0,0 -3.46,-7.29 -5.01,-14.32c-1.45,3.97 -2.17,7.4 -2.17,7.4c0,0 -1.09,-1.56 -1.76,-3.13c-0.67,-1.56 -1.16,-3.42 -1.16,-3.42c0,0 -1.46,2.55 -2.07,4.4c-0.59,1.81 -1.16,4.57 -1.16,4.57c0,0 -2.86,-3.59 -3.89,-7.93c-1.03,-4.34 -0.36,-7.47 -0.36,-7.47c0,0 -2.44,0.92 -5.17,2.2c-2.95,1.39 -4.93,3.24 -4.93,3.24c0,0 -0.12,-4.34 1.34,-8.74c1.46,-4.4 3.41,-6.43 3.41,-6.43l-2.86,1.33c0,0 0.87,-2.76 4.5,-5.5c3.48,-2.63 5.96,-3.07 5.96,-3.07c0,0 -2.25,-0.75 -4.32,-1.1c-1.87,-0.31 -3.77,-0.29 -3.77,-0.29c0,0 4.08,-3.18 8.88,-3.59c3.71,-0.31 7.24,0.64 7.24,0.64c0,0 -0.97,-1.68 -1.58,-3.07c-0.61,-1.39 -1.09,-2.84 -1.09,-2.84c0,0 6.75,0.81 10.28,6.31c0.47,0.73 0.89,1.46 1.28,2.19c1.25,-1.06 2.72,-2.01 4.45,-2.83c0.06,-0.72 0.14,-1.45 0.25,-2.19c0.82,-5.64 2.19,-9.36 3.65,-9.45c1.46,-0.09 2.65,5.12 4.26,9.21c0.06,0.16 0.13,0.33 0.2,0.49c2,0.01 3.81,0.35 5.38,0.84c0,0 0,0 0,0c-0.35,-3.49 -2.75,-5.27 -2.75,-5.27c0,0 2.48,0.03 4.8,1.55c2.19,1.43 2.74,2.61 2.74,2.61c0,0 1.09,-1.6 3.41,-2.67c3.5,-1.6 7.24,-1.45 7.24,-1.45c0,0 -1.51,0.82 -2.74,2.06c-0.96,0.97 -1.52,2.12 -1.52,2.12c0,0 1.37,-0.47 4.58,0.14c0.05,-0.14 0.11,-0.27 0.16,-0.41c1.61,-4.09 2.8,-9.3 4.26,-9.21c1.46,0.09 2.83,3.82 3.65,9.45c0.16,1.12 0.27,2.23 0.33,3.29c0.37,0.23 0.73,0.47 1.07,0.72c1.78,-2.52 4.13,-4.71 4.13,-4.71c0,0 0.12,1.94 0.03,3.35c-0.09,1.41 -0.27,3.23 -0.27,3.23c0,0 2.01,-1.47 5.47,-2.82c3.47,-1.35 9,-2.38 9,-2.38c0,0 -3.53,2.51 -4.81,3.7c-1.28,1.19 -3.04,3.2 -3.04,3.2c0,0 2.28,-0.51 6.45,0.75c5.6,1.69 7.66,6.14 7.66,6.14c0,0 -1.58,-0.77 -3.1,-1.07c-1.79,-0.35 -3.13,-0.13 -3.13,-0.13c0,0 3.2,2.05 5.63,6.52c3.41,6.27 3.28,11.09 3.28,11.09c0,0 -1.66,-2.08 -3.71,-3.6c-2.28,-1.69 -4.5,-2.22 -4.5,-2.22c0,0 0.49,3.16 0.12,6.92c-0.36,3.76 -1.76,7.14 -1.76,7.14c0,0 -1.1,-2.37 -2.55,-4.54c-1.34,-2.01 -2.92,-3.45 -2.92,-3.45c0,0 -0.24,1.79 -0.61,3.2c-0.36,1.41 -1.46,3.57 -1.46,3.57c0,0 -1.25,-4.35 -3.79,-9.43c0.12,6.14 -1.12,11.06 -1.12,11.06zM58.42,51.71c0,0 -0.39,0.87 -4.64,0.13c-4.52,-0.79 -6.12,-2.45 -6.12,-2.45c0,0 -5.18,3.42 -0.71,7.15c2.09,1.74 7.74,2.99 10.95,0.06c2.4,-2.19 0.52,-4.9 0.52,-4.9zM55.57,54.85l0.94,2.12c0,0 -0.48,0.23 -1.03,0.42c-0.59,0.2 -1.03,0.24 -1.03,0.24zM48.72,56.91c0,0 -0.47,-0.14 -1.02,-0.44c-0.52,-0.29 -1.01,-0.84 -1.01,-0.84l1.47,-1.63z" />
</svg>